#!OML:ASF H:\BabyWalks\Project 1\Capture day 1\Session 1\baby.ASF
:FULLY-SPECIFIED
:DEGREES
338
root -6.22245 17.2803 -0.616101 -141.286 84.0972 -142.492
lowerback 20.324 1.0776 3.50861
upperback 5.53609 2.73626 2.99965
thorax -5.34633 1.48793 0.535655
lowerneck -3.78483 -1.32062 9.42018
upperneck 6.47114 -1.68175 -9.60273
head 2.35665 -0.906157 -4.50091
rclavicle -1.98785e-014 -2.38542e-015
rhumerus -43.7254 6.0053 -77.4213
rradius 41.829
rwrist 2.93401
rhand -13.6503 -17.6462
rfingers 7.12502
rthumb 12.4663 -47.2544
lclavicle -1.98785e-014 -2.38542e-015
lhumerus -50.334 -7.28738 75.556
lradius 37.1323
lwrist -11.7601
lhand 5.05365 4.4708
lfingers 7.12502
lthumb 30.4211 31.981
rfemur -7.86123 7.64508 25.6563
rtibia 36.2065
rfoot -26.0552 0.989811
rtoes -6.11526
lfemur -32.9334 0.959452 -10.5356
ltibia 61.5607
lfoot -18.5539 -25.9664
ltoes -6.38076
339
root -6.07244 17.2921 -0.627496 -139.555 84.2732 -140.883
lowerback 20.3191 1.15172 3.52541
upperback 5.48733 2.81951 2.85276
thorax -5.3866 1.52381 0.348297
lowerneck -3.65342 -1.33599 9.2965
upperneck 6.0973 -1.73113 -9.26492
head 2.22526 -0.923309 -4.3708
rclavicle -9.93923e-015 3.89618e-014
rhumerus -43.6466 6.25079 -77.7191
rradius 42.6111
rwrist 1.64234
rhand -14.0535 -17.6067
rfingers 7.12502
rthumb 12.0776 -47.2382
lclavicle -9.93923e-015 3.89618e-014
lhumerus -51.1441 -6.82936 75.246
lradius 36.5389
lwrist -12.2382
lhand 5.84713 4.70435
lfingers 7.12502
lthumb 31.1776 32.0718
rfemur -7.1368 7.85366 25.7077
rtibia 35.5423
rfoot -25.8934 1.14199
rtoes -6.77169
lfemur -33.4731 0.732073 -10.7773
ltibia 59.3394
lfoot -18.637 -25.2395
ltoes -6.13526
340
root -5.92048 17.3155 -0.639346 -137.669 84.426 -139.143
lowerback 20.2868 1.21755 3.54602
upperback 5.43879 2.891 2.70493
thorax -5.4118 1.55409 0.161514
lowerneck -3.49533 -1.35248 9.164
upperneck 5.66511 -1.78125 -8.91386
head 2.07261 -0.940965 -4.2347
rclavicle 1.19271e-014 1.98785e-014
rhumerus -43.5917 6.51578 -78.0217
rradius 43.4394
rwrist 0.304003
rhand -14.3422 -17.605
rfingers 7.12502
rthumb 11.7991 -47.2526
lclavicle 1.19271e-014 1.98785e-014
lhumerus -51.983 -6.48864 75.0084
lradius 36.1357
lwrist -12.5069
lhand 6.47524 4.95558
lfingers 7.12502
lthumb 31.7761 32.2062
rfemur -6.4156 8.05042 25.7656
rtibia 34.8291
rfoot -25.6851 1.31843
rtoes -7.38873
lfemur -33.9282 0.42694 -10.9646
ltibia 56.9286
lfoot -18.6373 -24.5709
ltoes -5.90069
341
root -5.76763 17.3381 -0.652402 -135.536 84.5575 -137.18
lowerback 20.2305 1.27971 3.57783
upperback 5.3876 2.95846 2.5565
thorax -5.42623 1.58234 -0.0303838
lowerneck -3.31199 -1.37289 9.0244
upperneck 5.18232 -1.83508 -8.54869
head 1.90095 -0.960681 -4.09294
rclavicle -1.43125e-014 3.97569e-015
rhumerus -43.5709 6.79041 -78.3258
rradius 44.3089
rwrist -1.03097
rhand -14.5405 -17.633
rfingers 7.12502
rthumb 11.6079 -47.2915
lclavicle -1.43125e-014 3.97569e-015
lhumerus -52.8433 -6.26721 74.8533
lradius 35.9131
lwrist -12.5475
lhand 6.96205 5.22829
lfingers 7.12502
lthumb 32.2396 32.3859
rfemur -5.7247 8.23434 25.8333
rtibia 34.1051
rfoot -25.4376 1.52299
rtoes -7.98101
lfemur -34.352 0.0534874 -11.0808
ltibia 54.4014
lfoot -18.5675 -23.9693
ltoes -5.68782
342
root -5.61402 17.3598 -0.666648 -133.154 84.6701 -134.988
lowerback 20.1519 1.34132 3.61608
upperback 5.33385 3.02524 2.40894
thorax -5.431 1.61025 -0.223929
lowerneck -3.14467 -1.39383 8.91235
upperneck 4.53148 -1.91419 -7.87159
head 1.86942 -0.973064 -4.2852
rclavicle -7.55382e-015 1.66979e-014
rhumerus -43.5839 7.07162 -78.6253
rradius 45.2016
rwrist -2.31014
rhand -14.6544 -17.6665
rfingers 7.12502
rthumb 11.4981 -47.3312
lclavicle -7.55382e-015 1.66979e-014
lhumerus -53.7173 -6.15707 74.7831
lradius 35.8578
lwrist -12.3657
lhand 7.34216 5.51502
lfingers 7.12502
lthumb 32.6013 32.5985
rfemur -5.04235 8.39899 25.9076
rtibia 33.3268
rfoot -25.1273 1.76078
rtoes -8.48704
lfemur -34.733 -0.385148 -11.1204
ltibia 51.7521
lfoot -18.4233 -23.4296
ltoes -5.49517
343
root -5.45939 17.3801 -0.682066 -130.408 84.7648 -132.447
lowerback 20.0552 1.40687 3.66044
upperback 5.27865 3.09775 2.2661
thorax -5.4271 1.641 -0.41635
lowerneck -2.9215 -1.42097 8.74895
upperneck 4.00492 -1.96632 -7.5035
head 1.65092 -0.996784 -4.10596
rclavicle -2.92213e-014 1.19271e-014
rhumerus -43.6317 7.35916 -78.9162
rradius 46.1091
rwrist -3.50098
rhand -14.7266 -17.6871
rfingers 7.12502
rthumb 11.4284 -47.3556
lclavicle -2.92213e-014 1.19271e-014
lhumerus -54.5975 -6.14514 74.7949
lradius 35.9474
lwrist -12.0004
lhand 7.64217 5.76838
lfingers 7.12502
lthumb 32.8867 32.7924
rfemur -4.3835 8.54891 25.9954
rtibia 32.5558
rfoot -24.7936 2.02675
rtoes -8.91275
lfemur -35.076 -0.878356 -11.0702
ltibia 49.0438
lfoot -18.2619 -22.9281
ltoes -5.34553
344
root -5.30405 17.3987 -0.698418 -127.275 84.8444 -129.528
lowerback 19.9469 1.47871 3.70237
upperback 5.2224 3.17777 2.1282
thorax -5.41788 1.67551 -0.603174
lowerneck -2.69849 -1.44822 8.58273
upperneck 3.46915 -2.01579 -7.13397
head 1.43196 -1.01976 -3.92779
rclavicle 7.15625e-015 -2.22639e-014
rhumerus -43.7067 7.65119 -79.1968
rradius 47.0096
rwrist -4.56144
rhand -14.7739 -17.6684
rfingers 7.12502
rthumb 11.3828 -47.3394
lclavicle 7.15625e-015 -2.22639e-014
lhumerus -55.4711 -6.21106 74.8813
lradius 36.1635
lwrist -11.4891
lhand 7.90108 6.02345
lfingers 7.12502
lthumb 33.133 32.9955
rfemur -3.74755 8.68927 26.0942
rtibia 31.8002
rfoot -24.4468 2.31387
rtoes -9.26729
lfemur -35.3804 -1.42309 -10.926
ltibia 46.3102
lfoot -18.1149 -22.4253
ltoes -5.23856
